<svg version="1.2" xmlns="http://www.w3.org/2000/svg" viewBox="0 0 516 106" width="516" height="106"><style>.a{fill:#141d37}</style><path fill-rule="evenodd" class="a" d="m53.4 50.7q8.1 3.8 12.6 9.9 4.6 6 4.6 14 0 15.7-10.4 23.1-10.2 7.3-25.6 7.3h-34.3v-103h30.2q16.4 0 25.8 6.7 9.4 6.6 9.4 19.2 0 7.7-3.2 13.5-3.3 5.8-9.1 9.3zm-32.8-29.1v22.5h12.3q5.6 0 8.7-3.4 3.1-3.5 3.1-8.5 0-5.2-3.5-7.8-3.5-2.8-9.7-2.8zm13 64.5q7.2 0 11.5-2.8 4.5-2.9 4.5-8.7 0-10.9-17.4-10.9h-11.6v22.4zm102.2-84.1h20.3v83.4h48.5v19.6h-68.8zm125.6 51.7q0-14 7-26.2 7.1-12.2 19.2-19.3 12.2-7.3 26.3-7.3 14.1 0 26.2 7.3 12.2 7.1 19.3 19.3 7.3 12.2 7.3 26.2 0 14.2-7.3 26.3-7.1 12-19.3 19.2-12.1 7-26.2 7-14.3 0-26.3-7-12.1-7.2-19.2-19.2-7-12.1-7-26.3zm21 0q0 8.9 4.2 16.5 4.3 7.5 11.6 12 7.4 4.4 16.4 4.4 8.7 0 15.8-4.4 7.2-4.5 11.2-11.9 4.1-7.5 4.1-16.6 0-9.3-4.2-16.8-4.2-7.6-11.5-11.9-7.1-4.5-16-4.5-8.8 0-16.1 4.5-7.1 4.3-11.3 11.9-4.2 7.5-4.2 16.8zm233.1 41q-2.4 2.5-8.5 5.3-6.1 2.7-13.5 4.5-7.3 1.7-13.3 1.7-16.4 0-28.8-6.3-12.3-6.5-19.1-17.7-6.7-11.3-6.7-25.7 0-18.1 7.2-30.6 7.1-12.6 19.1-18.7 12.1-6.3 26.6-6.3 9.4 0 17.7 2.1 8.2 2.1 14.5 5.4l-6.5 18.9q-4.1-2.2-11.2-4-7-2-11.8-2-16.8 0-25.8 8.4-8.8 8.4-8.8 24.9 0 9.6 4.4 16.7 4.3 7 12 10.8 7.8 3.8 17.8 3.8 9.5 0 14.1-2.7v-12.5h-17.8v-19.6h38.4z"/></svg>