<svg version="1.2" xmlns="http://www.w3.org/2000/svg" viewBox="0 0 568 634" width="568" height="634"><style>.a{fill:none;stroke:#222;stroke-linecap:round;stroke-width:33.3}</style><path class="a" d="m284 550.3h-266.7"/><path class="a" d="m550.7 83.7h-100"/><path class="a" d="m550.7 550.3h-133.4"/><path class="a" d="m317.3 83.7h-300"/><path class="a" d="m117.3 317h-100"/><path class="a" d="m550.7 317h-300"/><path fill-rule="evenodd" class="a" d="m417.3 550.3c0 36.9-29.8 66.7-66.6 66.7-36.9 0-66.7-29.8-66.7-66.7 0-36.8 29.8-66.6 66.7-66.6 36.8 0 66.6 29.8 66.6 66.6z"/><path fill-rule="evenodd" class="a" d="m250.7 317c0 36.9-29.8 66.7-66.7 66.7-36.9 0-66.7-29.8-66.7-66.7 0-36.9 29.8-66.7 66.7-66.7 36.9 0 66.7 29.8 66.7 66.7z"/><path fill-rule="evenodd" class="a" d="m450.7 83.7c0 36.8-29.8 66.6-66.7 66.6-36.9 0-66.7-29.8-66.7-66.6 0-36.9 29.8-66.7 66.7-66.7 36.9 0 66.7 29.8 66.7 66.7z"/></svg>