<svg version="1.2" xmlns="http://www.w3.org/2000/svg" viewBox="0 0 1655 138" width="1655" height="138">
	<title>New Project</title>
	<style>
		.s0 { fill: #141d37 } 
	</style>
	<path id="BLUE MONDAY" fill-rule="evenodd" class="s0" d="m65.5 65.3q10 4.6 15.5 12.2 5.7 7.4 5.7 17.2 0 19.2-12.7 28.4-12.6 8.9-31.5 8.9h-42.2v-126.6h37.2q20.1 0 31.6 8.3 11.6 8 11.6 23.5 0 9.5-4 16.7-3.9 7.1-11.2 11.4zm-40.2-35.8v27.7h15.1q6.9 0 10.7-4.1 3.8-4.3 3.8-10.5 0-6.4-4.3-9.7-4.3-3.4-11.9-3.4zm16 79.3q8.8 0 14.1-3.5 5.5-3.6 5.5-10.6 0-13.4-21.3-13.4h-14.3v27.5zm104.7-103.4h25v102.5h59.5v24.1h-84.5zm167.1 79.8q0 6 3.6 11.5 3.6 5.5 9.6 9 6 3.4 12.9 3.4 7.4 0 13.6-3.4 6.2-3.5 9.6-9 3.6-5.5 3.6-11.5v-79.8h24.6v80.3q0 13.6-6.9 24.6-6.8 10.9-18.7 17-11.7 6.1-25.8 6.1-14.1 0-25.8-6.1-11.7-6.1-18.6-17-6.7-11-6.7-24.6v-80.3h25zm142-79.8h86.4v24.1h-61.4v27h54.3v24.1h-54.3v27.3h63.8v24.1h-88.8zm369.3-5.2h0.4v131.8h-25v-60.4l-41.3 58.7h-0.3l-39.7-54.9v56.6h-24.1v-131.8h0.2l64.1 91zm59.7 68.6q0-17.2 8.6-32.1 8.8-15 23.6-23.8 14.9-8.9 32.3-8.9 17.4 0 32.2 8.9 14.9 8.8 23.7 23.8 8.9 14.9 8.9 32.1 0 17.6-8.9 32.4-8.8 14.8-23.7 23.5-14.8 8.6-32.2 8.6-17.6 0-32.3-8.6-14.8-8.7-23.6-23.5-8.6-14.8-8.6-32.4zm25.8 0q0 11 5.2 20.3 5.3 9.3 14.2 14.8 9.1 5.4 20.2 5.4 10.6 0 19.4-5.4 8.8-5.5 13.7-14.6 5-9.3 5-20.5 0-11.3-5.1-20.6-5.2-9.3-14.1-14.6-8.8-5.5-19.6-5.5-10.9 0-19.8 5.5-8.8 5.3-13.9 14.6-5.2 9.3-5.2 20.6zm251.8-63.4h25.1v131.7h-0.7l-88.6-80 0.6 74.9h-25.3v-131.6h1l88.4 81.2zm92.2 126.6v-126.6h37.8q24.3 0 40 9.4 15.6 9.3 22.7 24.3 7.2 14.8 7.2 31.8 0 18.2-8.6 32.2-8.6 13.9-23.2 21.5-14.5 7.4-31.9 7.4zm25-24.1h14.8q19.4 0 30.8-10 11.3-10 11.3-28.7 0-15.2-6.4-24.1-6.1-8.9-14.6-12.4-8.2-3.4-15.6-3.4h-20.3zm205.9 24.1l-9.8-24.8h-42l-10.3 24.8h-24.6l57.1-131.6h1.4l57.1 131.6zm-43-45.8h24.9l-12.2-30.8zm182-80.8h30.8l-47.5 87.2v39.4h-25v-39.4l-46.6-87.2h30.8l29.1 58.5z"/>
</svg>