<svg version="1.2" xmlns="http://www.w3.org/2000/svg" viewBox="0 0 500 88" width="500" height="88">
	<title>New Project</title>
	<style>
		.s0 { fill: #ecb633 } 
	</style>
	<g id="Folder 1">
		<path id="BLUE MONDAY" fill-rule="evenodd" class="s0" d="m16.5 22.6q3.6 1.1 5.8 3.6 2.3 2.6 2.3 6.1 0 3.5-1.8 5.9-1.7 2.4-4.6 3.6-2.9 1.2-6.3 1.2h-10.5v-40.1h8.9q12.2 0 12.2 10.2 0 3.3-1.5 5.9-1.6 2.4-4.5 3.6zm-12.3-17v16.1h7.4q4.1 0 6.1-2.2 2-2.2 2-5.9 0-4.1-2.4-6.1-2.5-1.9-6.9-1.9zm7.6 34.9q4.3 0 7.1-2.1 2.9-2.1 2.9-6 0-4-3.1-6.1-3-2-7.1-2h-7.4v16.2zm31.6-37.6h2.8v37.4h22.1v2.7h-24.9zm45.3 26.5q0 3.5 1.4 6.1 1.4 2.5 3.9 3.9 2.6 1.4 5.8 1.4 3.2 0 5.7-1.4 2.5-1.4 4-3.9 1.4-2.6 1.4-6.1v-26.5h2.7v26.7q0 4.3-1.8 7.4-1.8 3.1-5 4.8-3.1 1.6-7 1.6-3.9 0-7.1-1.6-3.1-1.7-5-4.8-1.8-3.1-1.8-7.4v-26.7h2.8zm46.1-26.5h24.8v2.6h-22v15.9h19.8v2.7h-19.8v16.2h22.8v2.6h-25.6zm109.2-0.9v41h-2.7v-32.9l-16.5 23.2h-0.1l-16.5-22.9v32.6h-2.7v-41h0.1l19.1 27.2zm18.9 21q0-5.5 2.8-10.2 2.7-4.8 7.4-7.5 4.7-2.8 10.3-2.8 5.5 0 10.3 2.8 4.8 2.7 7.5 7.5 2.8 4.7 2.8 10.2 0 5.5-2.8 10.3-2.7 4.7-7.5 7.4-4.8 2.7-10.3 2.7-5.6 0-10.3-2.6-4.7-2.7-7.5-7.4-2.7-4.6-2.7-10.4zm2.8 0.1q0 4.8 2.4 8.8 2.4 4.1 6.4 6.5 4 2.4 8.8 2.4 4.9 0 9-2.4 4.1-2.4 6.5-6.4 2.4-4.1 2.4-9 0-4.9-2.4-8.9-2.4-4.1-6.5-6.6-4.1-2.4-8.9-2.4-4.9 0-9 2.5-4 2.4-6.4 6.5-2.3 4.2-2.3 9zm88.2-20.2h2.7v41h-0.1l-31-34.7 0.1 33.8h-2.8v-40.9h0.2l31 35zm24 40.1v-40.1h9.9q7.4 0 12.2 3 4.9 3 7.1 7.6 2.3 4.7 2.3 9.7 0 5.9-2.7 10.4-2.7 4.5-7.2 7-4.5 2.4-9.7 2.4zm2.7-2.7h8.4q4.9 0 8.8-2 4-2.2 6.4-6.1 2.3-3.9 2.3-9.2 0-4.7-2.2-8.6-2.1-4-6.2-6.4-4.1-2.4-9.9-2.4h-7.6zm73.5 2.7l-5.2-13.3h-17.8l-5.3 13.3h-2.8l17-41.9h0.3l17 41.9zm-22-15.9h15.7l-7.8-19.7zm63.7-24.2h3.3l-15 25.8v14.3h-2.7v-14.3l-15.1-25.8h3.4l13.1 22.7z"/>
		<path id="LONDON" fill-rule="evenodd" class="s0" d="m171.2 64h4.3v17.8h10.4v4.2h-14.7zm21.8 11q0-3 1.5-5.6 1.5-2.6 4.1-4.1 2.6-1.5 5.6-1.5 3.1 0 5.7 1.5 2.6 1.5 4.1 4.1 1.6 2.6 1.6 5.6 0 3.1-1.6 5.6-1.5 2.6-4.1 4.1-2.6 1.5-5.7 1.5-3 0-5.6-1.5-2.6-1.5-4.1-4.1-1.5-2.5-1.5-5.6zm4.5 0q0 1.9 0.9 3.6 0.9 1.6 2.5 2.5 1.6 1 3.5 1 1.9 0 3.4-1 1.5-0.9 2.4-2.5 0.9-1.6 0.9-3.6 0-1.9-0.9-3.6-0.9-1.6-2.5-2.5-1.5-1-3.4-1-1.9 0-3.5 1-1.5 0.9-2.4 2.5-0.9 1.7-0.9 3.6zm42.4-11h4.4v22.9h-0.1l-15.4-13.9v13h-4.4v-22.9h0.2l15.4 14.1zm14.6 22v-22h6.6q4.3 0 7 1.7 2.7 1.6 4 4.2 1.2 2.6 1.2 5.5 0 3.2-1.5 5.6-1.5 2.4-4 3.8-2.5 1.2-5.6 1.2zm4.4-4.1h2.6q3.3 0 5.3-1.8 2-1.7 2-5 0-2.6-1.1-4.2-1.1-1.5-2.6-2.1-1.4-0.6-2.7-0.6h-3.5zm21.9-6.8q0-3 1.5-5.6 1.6-2.6 4.1-4.1 2.7-1.6 5.7-1.6 3 0 5.6 1.6 2.6 1.5 4.1 4.1 1.6 2.6 1.6 5.6 0 3.1-1.6 5.6-1.5 2.6-4.1 4.1-2.6 1.5-5.6 1.5-3.1 0-5.7-1.5-2.5-1.5-4.1-4.1-1.5-2.5-1.5-5.6zm4.5 0q0 1.9 0.9 3.5 1 1.7 2.5 2.6 1.6 0.9 3.5 0.9 1.9 0 3.4-0.9 1.6-0.9 2.4-2.5 0.9-1.6 0.9-3.6 0-2-0.9-3.6-0.9-1.6-2.5-2.5-1.5-1-3.4-1-1.9 0-3.4 1-1.6 0.9-2.5 2.5-0.9 1.6-0.9 3.6zm42.5-11h4.4v22.9h-0.2l-15.4-13.9 0.1 13h-4.4v-22.9h0.2l15.4 14.1z"/>
		<path id="Shape 1" fill-rule="evenodd" class="s0" d="m500 49.8v1.7h-500v-1.7z"/>
	</g>
</svg>