<svg version="1.2" xmlns="http://www.w3.org/2000/svg" viewBox="0 0 607 109" width="607" height="109">
	<title>New Project</title>
	<style>
		.s0 { fill: #2b6673 } 
	</style>
	<path id="MODEL" fill-rule="evenodd" class="s0" d="m106.1 0.8h0.3v107.2h-20.3v-49.1l-33.6 47.7h-0.3l-32.3-44.7v46.1h-19.6v-107.2h0.1l52.3 74zm41.5 55.9q0-14 7-26.2 7.2-12.2 19.2-19.3 12.2-7.3 26.3-7.3 14.2 0 26.2 7.3 12.2 7.1 19.3 19.3 7.3 12.2 7.3 26.2 0 14.3-7.3 26.3-7.1 12-19.3 19.2-12 7-26.2 7-14.2 0-26.3-7-12-7.2-19.2-19.2-7-12-7-26.3zm21 0q0 8.9 4.2 16.5 4.4 7.6 11.7 12 7.4 4.4 16.3 4.4 8.7 0 15.9-4.4 7.1-4.4 11.2-11.9 4-7.5 4-16.6 0-9.3-4.2-16.8-4.2-7.6-11.5-11.9-7.1-4.5-15.9-4.5-8.8 0-16.1 4.5-7.2 4.3-11.4 11.9-4.2 7.5-4.2 16.8zm125.6 51.4v-103.1h30.8q19.8 0 32.5 7.7 12.7 7.6 18.5 19.8 5.9 12 5.9 25.9 0 14.8-7 26.1-7 11.4-18.9 17.5-11.8 6.1-25.9 6.1zm20.3-19.6h12q15.8 0 25.1-8.2 9.2-8.1 9.2-23.3 0-12.4-5.2-19.6-5-7.3-11.9-10.1-6.7-2.8-12.7-2.8h-16.5zm108.6-83.5h70.3v19.6h-50v22h44.2v19.6h-44.2v22.3h51.9v19.6h-72.2zm114.2 0h20.3v83.4h48.5v19.6h-68.8z"/>
</svg>